<svg xmlns="http://www.w3.org/2000/svg" xmlns:xlink="http://www.w3.org/1999/xlink" width="20" height="20" viewBox="0 0 20 20">
  <defs>
    <linearGradient id="linear-gradient" x1="0.094" y1="0.179" x2="0.5" y2="1" gradientUnits="objectBoundingBox">
      <stop offset="0" stop-color="#277fd9"/>
      <stop offset="1" stop-color="#2365c4"/>
    </linearGradient>
    <filter id="Path_77" x="0" y="2" width="13" height="14.001" filterUnits="userSpaceOnUse">
      <feOffset dx="1" dy="1" input="SourceAlpha"/>
      <feGaussianBlur stdDeviation="1.5" result="blur"/>
      <feFlood flood-color="#fff" flood-opacity="0.102" result="color"/>
      <feComposite operator="out" in="SourceGraphic" in2="blur"/>
      <feComposite operator="in" in="color"/>
      <feComposite operator="in" in2="SourceGraphic"/>
    </filter>
    <linearGradient id="linear-gradient-2" x1="0.094" y1="0.179" x2="0.5" y2="1" gradientUnits="objectBoundingBox">
      <stop offset="0" stop-color="#2d86e0"/>
      <stop offset="1" stop-color="#296bcc"/>
    </linearGradient>
    <filter id="Path_76" x="7" y="4" width="13" height="14.001" filterUnits="userSpaceOnUse">
      <feOffset dx="1" dy="1" input="SourceAlpha"/>
      <feGaussianBlur stdDeviation="1.5" result="blur-2"/>
      <feFlood flood-color="#fff" flood-opacity="0.102" result="color-2"/>
      <feComposite operator="out" in="SourceGraphic" in2="blur-2"/>
      <feComposite operator="in" in="color-2"/>
      <feComposite operator="in" in2="SourceGraphic"/>
    </filter>
  </defs>
  <g id="ico_group" transform="translate(-172 -254)">
    <rect id="Rectangle_218" data-name="Rectangle 218" width="20" height="20" transform="translate(172 254)" fill="none" opacity="0.1"/>
    <g data-type="innerShadowGroup">
      <g id="Path_77-2" data-name="Path 77" transform="translate(172 256)" fill="url(#linear-gradient)">
        <path d="M0,14V12.4a4,4,0,0,1,4-4H5.3l.182-1.131A3.808,3.808,0,0,1,3.2,3.733C3.2,1.671,4.5,0,6.5,0S9.8,1.671,9.8,3.733A3.808,3.808,0,0,1,7.518,7.269L7.7,8.4H9a4,4,0,0,1,4,4V14Z" stroke="none"/>
        <path d="M 12.49960041046143 13.50130081176758 L 12.49960041046143 12.40020084381104 C 12.49960041046143 10.47051048278809 10.92969036102295 8.900600433349609 9 8.900600433349609 L 7.274140357971191 8.900600433349609 L 6.960960388183594 6.95119047164917 L 7.335309982299805 6.803830623626709 C 8.49215030670166 6.348480224609375 9.300100326538086 5.085790634155273 9.300100326538086 3.733200311660767 C 9.300100326538086 2.831190347671509 9.022970199584961 2.00877046585083 8.519760131835938 1.417420387268066 C 8.009030342102051 0.8172404170036316 7.310540199279785 0.5000004172325134 6.499800205230713 0.5000004172325134 C 5.689480304718018 0.5000004172325134 4.991270065307617 0.8172304034233093 4.480660438537598 1.4173903465271 C 3.977500200271606 2.008790493011475 3.700400114059448 2.831220388412476 3.700400114059448 3.733200311660767 C 3.700400114059448 5.086020469665527 4.508320331573486 6.348780632019043 5.665120124816895 6.804000377655029 L 6.039520263671875 6.951330184936523 L 5.726370334625244 8.900600433349609 L 4.000500202178955 8.900600433349609 C 2.070320129394531 8.900600433349609 0.5000001788139343 10.47051048278809 0.5000001788139343 12.40020084381104 L 0.5000001788139343 13.50130081176758 L 12.49960041046143 13.50130081176758 M 12.99960041046143 14.00130081176758 L 2.052307195299363e-07 14.00130081176758 L 2.052307195299363e-07 12.40020084381104 C 2.052307195299363e-07 10.19160079956055 1.791000247001648 8.400600433349609 4.000500202178955 8.400600433349609 L 5.300280094146729 8.400600433349609 L 5.482030391693115 7.269270420074463 C 4.210030078887939 6.768720626831055 3.200400114059448 5.374980449676514 3.200400114059448 3.733200311660767 C 3.200400114059448 1.671300411224365 4.499100208282471 4.058837816955929e-07 6.499800205230713 4.058837816955929e-07 C 8.501399993896484 4.058837816955929e-07 9.800100326538086 1.671300411224365 9.800100326538086 3.733200311660767 C 9.800100326538086 5.374730587005615 8.790619850158691 6.768340587615967 7.518440246582031 7.269090175628662 L 7.700220108032227 8.400600433349609 L 9 8.400600433349609 C 11.20950031280518 8.400600433349609 12.99960041046143 10.19160079956055 12.99960041046143 12.40020084381104 L 12.99960041046143 14.00130081176758 Z" stroke="none"/>
      </g>
      <g transform="matrix(1, 0, 0, 1, 172, 254)" filter="url(#Path_77)">
        <g id="Path_77-3" data-name="Path 77" transform="translate(0 2)" fill="#fff">
          <path d="M0,14V12.4a4,4,0,0,1,4-4H5.3l.182-1.131A3.808,3.808,0,0,1,3.2,3.733C3.2,1.671,4.5,0,6.5,0S9.8,1.671,9.8,3.733A3.808,3.808,0,0,1,7.518,7.269L7.7,8.4H9a4,4,0,0,1,4,4V14Z" stroke="none"/>
          <path d="M 12.49960041046143 13.50130081176758 L 12.49960041046143 12.40020084381104 C 12.49960041046143 10.47051048278809 10.92969036102295 8.900600433349609 9 8.900600433349609 L 7.274140357971191 8.900600433349609 L 6.960960388183594 6.95119047164917 L 7.335309982299805 6.803830623626709 C 8.49215030670166 6.348480224609375 9.300100326538086 5.085790634155273 9.300100326538086 3.733200311660767 C 9.300100326538086 2.831190347671509 9.022970199584961 2.00877046585083 8.519760131835938 1.417420387268066 C 8.009030342102051 0.8172404170036316 7.310540199279785 0.5000004172325134 6.499800205230713 0.5000004172325134 C 5.689480304718018 0.5000004172325134 4.991270065307617 0.8172304034233093 4.480660438537598 1.4173903465271 C 3.977500200271606 2.008790493011475 3.700400114059448 2.831220388412476 3.700400114059448 3.733200311660767 C 3.700400114059448 5.086020469665527 4.508320331573486 6.348780632019043 5.665120124816895 6.804000377655029 L 6.039520263671875 6.951330184936523 L 5.726370334625244 8.900600433349609 L 4.000500202178955 8.900600433349609 C 2.070320129394531 8.900600433349609 0.5000001788139343 10.47051048278809 0.5000001788139343 12.40020084381104 L 0.5000001788139343 13.50130081176758 L 12.49960041046143 13.50130081176758 M 12.99960041046143 14.00130081176758 L 2.052307195299363e-07 14.00130081176758 L 2.052307195299363e-07 12.40020084381104 C 2.052307195299363e-07 10.19160079956055 1.791000247001648 8.400600433349609 4.000500202178955 8.400600433349609 L 5.300280094146729 8.400600433349609 L 5.482030391693115 7.269270420074463 C 4.210030078887939 6.768720626831055 3.200400114059448 5.374980449676514 3.200400114059448 3.733200311660767 C 3.200400114059448 1.671300411224365 4.499100208282471 4.058837816955929e-07 6.499800205230713 4.058837816955929e-07 C 8.501399993896484 4.058837816955929e-07 9.800100326538086 1.671300411224365 9.800100326538086 3.733200311660767 C 9.800100326538086 5.374730587005615 8.790619850158691 6.768340587615967 7.518440246582031 7.269090175628662 L 7.700220108032227 8.400600433349609 L 9 8.400600433349609 C 11.20950031280518 8.400600433349609 12.99960041046143 10.19160079956055 12.99960041046143 12.40020084381104 L 12.99960041046143 14.00130081176758 Z" stroke="none"/>
        </g>
      </g>
      <g id="Path_77-4" data-name="Path 77" transform="translate(172 256)" fill="none">
        <path d="M0,14V12.4a4,4,0,0,1,4-4H5.3l.182-1.131A3.808,3.808,0,0,1,3.2,3.733C3.2,1.671,4.5,0,6.5,0S9.8,1.671,9.8,3.733A3.808,3.808,0,0,1,7.518,7.269L7.7,8.4H9a4,4,0,0,1,4,4V14Z" stroke="none"/>
        <path d="M 12.49960041046143 13.50130081176758 L 12.49960041046143 12.40020084381104 C 12.49960041046143 10.47051048278809 10.92969036102295 8.900600433349609 9 8.900600433349609 L 7.274140357971191 8.900600433349609 L 6.960960388183594 6.95119047164917 L 7.335309982299805 6.803830623626709 C 8.49215030670166 6.348480224609375 9.300100326538086 5.085790634155273 9.300100326538086 3.733200311660767 C 9.300100326538086 2.831190347671509 9.022970199584961 2.00877046585083 8.519760131835938 1.417420387268066 C 8.009030342102051 0.8172404170036316 7.310540199279785 0.5000004172325134 6.499800205230713 0.5000004172325134 C 5.689480304718018 0.5000004172325134 4.991270065307617 0.8172304034233093 4.480660438537598 1.4173903465271 C 3.977500200271606 2.008790493011475 3.700400114059448 2.831220388412476 3.700400114059448 3.733200311660767 C 3.700400114059448 5.086020469665527 4.508320331573486 6.348780632019043 5.665120124816895 6.804000377655029 L 6.039520263671875 6.951330184936523 L 5.726370334625244 8.900600433349609 L 4.000500202178955 8.900600433349609 C 2.070320129394531 8.900600433349609 0.5000001788139343 10.47051048278809 0.5000001788139343 12.40020084381104 L 0.5000001788139343 13.50130081176758 L 12.49960041046143 13.50130081176758 M 12.99960041046143 14.00130081176758 L 2.052307195299363e-07 14.00130081176758 L 2.052307195299363e-07 12.40020084381104 C 2.052307195299363e-07 10.19160079956055 1.791000247001648 8.400600433349609 4.000500202178955 8.400600433349609 L 5.300280094146729 8.400600433349609 L 5.482030391693115 7.269270420074463 C 4.210030078887939 6.768720626831055 3.200400114059448 5.374980449676514 3.200400114059448 3.733200311660767 C 3.200400114059448 1.671300411224365 4.499100208282471 4.058837816955929e-07 6.499800205230713 4.058837816955929e-07 C 8.501399993896484 4.058837816955929e-07 9.800100326538086 1.671300411224365 9.800100326538086 3.733200311660767 C 9.800100326538086 5.374730587005615 8.790619850158691 6.768340587615967 7.518440246582031 7.269090175628662 L 7.700220108032227 8.400600433349609 L 9 8.400600433349609 C 11.20950031280518 8.400600433349609 12.99960041046143 10.19160079956055 12.99960041046143 12.40020084381104 L 12.99960041046143 14.00130081176758 Z" stroke="none" fill="rgba(0,0,0,0.1)"/>
      </g>
    </g>
    <g data-type="innerShadowGroup">
      <g id="Path_76-2" data-name="Path 76" transform="translate(179 258)" fill="url(#linear-gradient-2)">
        <path d="M0,14V12.4a4,4,0,0,1,4-4H5.3l.182-1.131A3.808,3.808,0,0,1,3.2,3.733C3.2,1.671,4.5,0,6.5,0S9.8,1.671,9.8,3.733A3.808,3.808,0,0,1,7.518,7.269L7.7,8.4H9a4,4,0,0,1,4,4V14Z" stroke="none"/>
        <path d="M 12.49960041046143 13.50130081176758 L 12.49960041046143 12.40020084381104 C 12.49960041046143 10.47051048278809 10.92969036102295 8.900600433349609 9 8.900600433349609 L 7.274140357971191 8.900600433349609 L 6.960960388183594 6.95119047164917 L 7.335309982299805 6.803830623626709 C 8.49215030670166 6.348480224609375 9.300100326538086 5.085790634155273 9.300100326538086 3.733200311660767 C 9.300100326538086 2.831190347671509 9.022970199584961 2.00877046585083 8.519760131835938 1.417420387268066 C 8.009030342102051 0.8172404170036316 7.310540199279785 0.5000004172325134 6.499800205230713 0.5000004172325134 C 5.689480304718018 0.5000004172325134 4.991270065307617 0.8172304034233093 4.480660438537598 1.4173903465271 C 3.977500200271606 2.008790493011475 3.700400114059448 2.831220388412476 3.700400114059448 3.733200311660767 C 3.700400114059448 5.086020469665527 4.508320331573486 6.348780632019043 5.665120124816895 6.804000377655029 L 6.039520263671875 6.951330184936523 L 5.726370334625244 8.900600433349609 L 4.000500202178955 8.900600433349609 C 2.070320129394531 8.900600433349609 0.5000001788139343 10.47051048278809 0.5000001788139343 12.40020084381104 L 0.5000001788139343 13.50130081176758 L 12.49960041046143 13.50130081176758 M 12.99960041046143 14.00130081176758 L 2.052307195299363e-07 14.00130081176758 L 2.052307195299363e-07 12.40020084381104 C 2.052307195299363e-07 10.19160079956055 1.791000247001648 8.400600433349609 4.000500202178955 8.400600433349609 L 5.300280094146729 8.400600433349609 L 5.482030391693115 7.269270420074463 C 4.210030078887939 6.768720626831055 3.200400114059448 5.374980449676514 3.200400114059448 3.733200311660767 C 3.200400114059448 1.671300411224365 4.499100208282471 4.058837816955929e-07 6.499800205230713 4.058837816955929e-07 C 8.501399993896484 4.058837816955929e-07 9.800100326538086 1.671300411224365 9.800100326538086 3.733200311660767 C 9.800100326538086 5.374730587005615 8.790619850158691 6.768340587615967 7.518440246582031 7.269090175628662 L 7.700220108032227 8.400600433349609 L 9 8.400600433349609 C 11.20950031280518 8.400600433349609 12.99960041046143 10.19160079956055 12.99960041046143 12.40020084381104 L 12.99960041046143 14.00130081176758 Z" stroke="none"/>
      </g>
      <g transform="matrix(1, 0, 0, 1, 172, 254)" filter="url(#Path_76)">
        <g id="Path_76-3" data-name="Path 76" transform="translate(7 4)" fill="#fff">
          <path d="M0,14V12.4a4,4,0,0,1,4-4H5.3l.182-1.131A3.808,3.808,0,0,1,3.2,3.733C3.2,1.671,4.5,0,6.5,0S9.8,1.671,9.8,3.733A3.808,3.808,0,0,1,7.518,7.269L7.7,8.4H9a4,4,0,0,1,4,4V14Z" stroke="none"/>
          <path d="M 12.49960041046143 13.50130081176758 L 12.49960041046143 12.40020084381104 C 12.49960041046143 10.47051048278809 10.92969036102295 8.900600433349609 9 8.900600433349609 L 7.274140357971191 8.900600433349609 L 6.960960388183594 6.95119047164917 L 7.335309982299805 6.803830623626709 C 8.49215030670166 6.348480224609375 9.300100326538086 5.085790634155273 9.300100326538086 3.733200311660767 C 9.300100326538086 2.831190347671509 9.022970199584961 2.00877046585083 8.519760131835938 1.417420387268066 C 8.009030342102051 0.8172404170036316 7.310540199279785 0.5000004172325134 6.499800205230713 0.5000004172325134 C 5.689480304718018 0.5000004172325134 4.991270065307617 0.8172304034233093 4.480660438537598 1.4173903465271 C 3.977500200271606 2.008790493011475 3.700400114059448 2.831220388412476 3.700400114059448 3.733200311660767 C 3.700400114059448 5.086020469665527 4.508320331573486 6.348780632019043 5.665120124816895 6.804000377655029 L 6.039520263671875 6.951330184936523 L 5.726370334625244 8.900600433349609 L 4.000500202178955 8.900600433349609 C 2.070320129394531 8.900600433349609 0.5000001788139343 10.47051048278809 0.5000001788139343 12.40020084381104 L 0.5000001788139343 13.50130081176758 L 12.49960041046143 13.50130081176758 M 12.99960041046143 14.00130081176758 L 2.052307195299363e-07 14.00130081176758 L 2.052307195299363e-07 12.40020084381104 C 2.052307195299363e-07 10.19160079956055 1.791000247001648 8.400600433349609 4.000500202178955 8.400600433349609 L 5.300280094146729 8.400600433349609 L 5.482030391693115 7.269270420074463 C 4.210030078887939 6.768720626831055 3.200400114059448 5.374980449676514 3.200400114059448 3.733200311660767 C 3.200400114059448 1.671300411224365 4.499100208282471 4.058837816955929e-07 6.499800205230713 4.058837816955929e-07 C 8.501399993896484 4.058837816955929e-07 9.800100326538086 1.671300411224365 9.800100326538086 3.733200311660767 C 9.800100326538086 5.374730587005615 8.790619850158691 6.768340587615967 7.518440246582031 7.269090175628662 L 7.700220108032227 8.400600433349609 L 9 8.400600433349609 C 11.20950031280518 8.400600433349609 12.99960041046143 10.19160079956055 12.99960041046143 12.40020084381104 L 12.99960041046143 14.00130081176758 Z" stroke="none"/>
        </g>
      </g>
      <g id="Path_76-4" data-name="Path 76" transform="translate(179 258)" fill="none">
        <path d="M0,14V12.4a4,4,0,0,1,4-4H5.3l.182-1.131A3.808,3.808,0,0,1,3.2,3.733C3.2,1.671,4.5,0,6.5,0S9.8,1.671,9.8,3.733A3.808,3.808,0,0,1,7.518,7.269L7.7,8.4H9a4,4,0,0,1,4,4V14Z" stroke="none"/>
        <path d="M 12.49960041046143 13.50130081176758 L 12.49960041046143 12.40020084381104 C 12.49960041046143 10.47051048278809 10.92969036102295 8.900600433349609 9 8.900600433349609 L 7.274140357971191 8.900600433349609 L 6.960960388183594 6.95119047164917 L 7.335309982299805 6.803830623626709 C 8.49215030670166 6.348480224609375 9.300100326538086 5.085790634155273 9.300100326538086 3.733200311660767 C 9.300100326538086 2.831190347671509 9.022970199584961 2.00877046585083 8.519760131835938 1.417420387268066 C 8.009030342102051 0.8172404170036316 7.310540199279785 0.5000004172325134 6.499800205230713 0.5000004172325134 C 5.689480304718018 0.5000004172325134 4.991270065307617 0.8172304034233093 4.480660438537598 1.4173903465271 C 3.977500200271606 2.008790493011475 3.700400114059448 2.831220388412476 3.700400114059448 3.733200311660767 C 3.700400114059448 5.086020469665527 4.508320331573486 6.348780632019043 5.665120124816895 6.804000377655029 L 6.039520263671875 6.951330184936523 L 5.726370334625244 8.900600433349609 L 4.000500202178955 8.900600433349609 C 2.070320129394531 8.900600433349609 0.5000001788139343 10.47051048278809 0.5000001788139343 12.40020084381104 L 0.5000001788139343 13.50130081176758 L 12.49960041046143 13.50130081176758 M 12.99960041046143 14.00130081176758 L 2.052307195299363e-07 14.00130081176758 L 2.052307195299363e-07 12.40020084381104 C 2.052307195299363e-07 10.19160079956055 1.791000247001648 8.400600433349609 4.000500202178955 8.400600433349609 L 5.300280094146729 8.400600433349609 L 5.482030391693115 7.269270420074463 C 4.210030078887939 6.768720626831055 3.200400114059448 5.374980449676514 3.200400114059448 3.733200311660767 C 3.200400114059448 1.671300411224365 4.499100208282471 4.058837816955929e-07 6.499800205230713 4.058837816955929e-07 C 8.501399993896484 4.058837816955929e-07 9.800100326538086 1.671300411224365 9.800100326538086 3.733200311660767 C 9.800100326538086 5.374730587005615 8.790619850158691 6.768340587615967 7.518440246582031 7.269090175628662 L 7.700220108032227 8.400600433349609 L 9 8.400600433349609 C 11.20950031280518 8.400600433349609 12.99960041046143 10.19160079956055 12.99960041046143 12.40020084381104 L 12.99960041046143 14.00130081176758 Z" stroke="none" fill="rgba(0,0,0,0.1)"/>
      </g>
    </g>
  </g>
</svg>
