<svg xmlns="http://www.w3.org/2000/svg" width="14" height="14" viewBox="0 0 14 14">
  <g id="ico_refresh-nor" transform="translate(-1668 -153)">
    <rect id="Rectangle_183" data-name="Rectangle 183" width="14" height="14" transform="translate(1668 153)" fill="none" opacity="0.1"/>
    <path id="Path_67" data-name="Path 67" d="M-2020-12734a6.005,6.005,0,0,1,6-6,6.016,6.016,0,0,1,3.7,1.277V-12740h1.6v4.3h-4.3v-1.6h1.909a4.408,4.408,0,0,0-2.907-1.1,4.406,4.406,0,0,0-4.4,4.4,4.4,4.4,0,0,0,4.4,4.4,4.379,4.379,0,0,0,4.284-3.4h1.634a6,6,0,0,1-2.024,3.564A6.008,6.008,0,0,1-2014-12728,6,6,0,0,1-2020-12734Z" transform="translate(3689.001 12894)" fill="#777d87"/>
  </g>
</svg>
